<?xml version="1.0" encoding="UTF-8"?>
<svg xmlns="http://www.w3.org/2000/svg" xmlns:xlink="http://www.w3.org/1999/xlink" width="50px" height="41px" viewBox="0 0 50 41" version="1.1">
<g id="surface1">
<path style=" stroke:none;fill-rule:evenodd;fill:rgb(83.529413%,78.823531%,74.509805%);fill-opacity:1;" d="M 20.003906 3.351562 C 19.808594 3.480469 19.582031 3.542969 19.355469 3.523438 L 19.355469 3.527344 C 16.730469 3.527344 14.5625 5.445312 14.542969 6.589844 C 14.542969 7.152344 14.976562 7.414062 15.5625 7.527344 C 17.566406 7.875 18.671875 8.679688 20.207031 11.152344 C 21.363281 12.96875 22.808594 15.269531 23.699219 16.6875 C 24.164062 17.425781 24.476562 17.925781 24.519531 17.992188 C 24.714844 18.296875 24.820312 18.328125 24.964844 18.328125 C 25.109375 18.328125 25.222656 18.296875 25.425781 17.992188 C 25.46875 17.921875 25.8125 17.378906 26.3125 16.585938 C 27.210938 15.164062 28.625 12.925781 29.738281 11.144531 C 31.3125 8.664062 32.382812 7.871094 34.382812 7.523438 C 34.976562 7.414062 35.402344 7.148438 35.402344 6.585938 C 35.402344 5.445312 33.246094 3.523438 30.605469 3.523438 C 30.378906 3.542969 30.148438 3.480469 29.957031 3.351562 C 29.769531 3.226562 29.621094 3.039062 29.542969 2.820312 C 29.105469 1.964844 28.449219 1.253906 27.644531 0.757812 C 26.84375 0.261719 25.921875 0 24.980469 0 C 24.042969 0 23.117188 0.261719 22.316406 0.757812 C 21.511719 1.257812 20.851562 1.964844 20.417969 2.820312 C 20.34375 3.039062 20.191406 3.226562 20.003906 3.351562 Z M 18.320312 13.25 C 16.15625 9.808594 13.472656 8.695312 10.941406 8.695312 L 10.9375 8.695312 C 7.570312 8.695312 6.351562 10.503906 6.351562 11.238281 C 6.351562 11.535156 6.503906 11.800781 7.015625 11.800781 C 9.417969 11.800781 10.929688 13.257812 12.097656 15.203125 C 13.269531 17.15625 19.09375 26.699219 19.167969 26.808594 C 19.203125 26.878906 19.257812 26.945312 19.324219 26.988281 C 19.394531 27.03125 19.46875 27.054688 19.550781 27.054688 C 19.632812 27.054688 19.710938 27.03125 19.78125 26.992188 C 19.851562 26.949219 19.910156 26.886719 19.949219 26.816406 C 20.03125 26.679688 23.097656 21.753906 23.171875 21.648438 C 23.234375 21.554688 23.269531 21.445312 23.273438 21.332031 C 23.269531 21.21875 23.238281 21.113281 23.175781 21.027344 C 23.117188 20.917969 19.421875 14.996094 18.320312 13.25 Z M 17.558594 40.429688 C 18.203125 40.804688 18.933594 41 19.675781 41 C 20.417969 41.007812 21.152344 40.816406 21.796875 40.441406 C 22.445312 40.070312 22.980469 39.527344 23.355469 38.867188 C 24.207031 37.484375 36.683594 17.152344 37.851562 15.207031 C 39.019531 13.265625 40.527344 11.804688 42.933594 11.804688 C 43.445312 11.804688 43.601562 11.539062 43.601562 11.242188 C 43.601562 10.507812 42.367188 8.699219 39 8.699219 C 36.457031 8.699219 33.78125 9.808594 31.617188 13.253906 C 30.507812 14.996094 21.898438 28.855469 20.078125 31.820312 C 20 31.960938 19.84375 32.179688 19.625 32.179688 C 19.40625 32.179688 19.296875 32.042969 19.15625 31.820312 C 15.460938 25.917969 10.511719 17.953125 10.511719 17.953125 C 8.488281 14.65625 6.148438 13.851562 4.136719 13.851562 C 1.46875 13.851562 0 15.269531 0 16.207031 C 0 16.539062 0.140625 16.898438 0.777344 16.898438 C 2.382812 16.898438 2.984375 17.75 4.753906 20.667969 C 6.097656 22.816406 16.003906 38.859375 16.003906 38.859375 C 16.378906 39.511719 16.914062 40.054688 17.558594 40.429688 Z M 45.238281 20.667969 C 47.011719 17.75 47.613281 16.898438 49.21875 16.898438 L 49.222656 16.898438 C 49.847656 16.898438 50 16.539062 50 16.207031 C 50 15.269531 48.53125 13.851562 45.859375 13.851562 C 43.855469 13.851562 41.53125 14.65625 39.484375 17.953125 C 39.484375 17.953125 26.941406 38.09375 26.859375 38.234375 C 26.734375 38.371094 26.65625 38.539062 26.628906 38.722656 C 26.65625 38.902344 26.734375 39.070312 26.859375 39.199219 C 27.257812 39.757812 27.785156 40.210938 28.390625 40.527344 C 28.996094 40.835938 29.667969 41 30.347656 41 C 31.085938 41.003906 31.816406 40.804688 32.460938 40.429688 C 33.101562 40.054688 33.640625 39.511719 34.015625 38.859375 C 34.015625 38.859375 43.925781 22.816406 45.238281 20.667969 Z M 45.238281 20.667969 "/>
</g>
</svg>
