<?xml version="1.0" encoding="UTF-8"?>
<svg xmlns="http://www.w3.org/2000/svg" xmlns:xlink="http://www.w3.org/1999/xlink" width="35px" height="29px" viewBox="0 0 35 29" version="1.1">
<g id="surface1">
<path style=" stroke:none;fill-rule:evenodd;fill:rgb(83.529413%,78.823531%,74.509805%);fill-opacity:1;" d="M 14.003906 2.371094 C 13.867188 2.460938 13.707031 2.507812 13.550781 2.492188 L 13.550781 2.496094 C 11.710938 2.496094 10.195312 3.851562 10.179688 4.660156 C 10.179688 5.058594 10.484375 5.242188 10.894531 5.324219 C 12.296875 5.570312 13.070312 6.140625 14.144531 7.886719 C 14.953125 9.171875 15.964844 10.800781 16.589844 11.804688 C 16.914062 12.324219 17.132812 12.679688 17.164062 12.726562 C 17.300781 12.941406 17.375 12.964844 17.476562 12.964844 C 17.578125 12.964844 17.65625 12.941406 17.796875 12.726562 C 17.828125 12.675781 18.070312 12.292969 18.417969 11.730469 C 19.046875 10.726562 20.039062 9.144531 20.816406 7.882812 C 21.917969 6.128906 22.667969 5.566406 24.066406 5.320312 C 24.484375 5.242188 24.78125 5.054688 24.78125 4.660156 C 24.78125 3.851562 23.273438 2.492188 21.425781 2.492188 C 21.265625 2.507812 21.105469 2.460938 20.96875 2.371094 C 20.839844 2.28125 20.734375 2.148438 20.679688 1.996094 C 20.375 1.390625 19.914062 0.886719 19.351562 0.535156 C 18.789062 0.183594 18.144531 0 17.488281 0 C 16.832031 0 16.183594 0.183594 15.621094 0.535156 C 15.058594 0.890625 14.597656 1.390625 14.292969 1.996094 C 14.242188 2.148438 14.132812 2.28125 14.003906 2.371094 Z M 12.824219 9.371094 C 11.308594 6.9375 9.429688 6.148438 7.660156 6.148438 L 7.65625 6.148438 C 5.300781 6.148438 4.445312 7.429688 4.445312 7.949219 C 4.445312 8.160156 4.550781 8.347656 4.910156 8.347656 C 6.59375 8.347656 7.652344 9.378906 8.46875 10.753906 C 9.289062 12.136719 13.367188 18.886719 13.417969 18.960938 C 13.441406 19.011719 13.480469 19.058594 13.527344 19.089844 C 13.574219 19.121094 13.628906 19.136719 13.683594 19.136719 C 13.742188 19.136719 13.796875 19.121094 13.847656 19.09375 C 13.894531 19.0625 13.9375 19.015625 13.964844 18.96875 C 14.023438 18.871094 16.167969 15.386719 16.21875 15.3125 C 16.265625 15.246094 16.289062 15.167969 16.292969 15.089844 C 16.289062 15.007812 16.265625 14.933594 16.222656 14.871094 C 16.183594 14.796875 13.59375 10.605469 12.824219 9.371094 Z M 12.292969 28.597656 C 12.742188 28.863281 13.253906 29 13.773438 29 C 14.292969 29.003906 14.808594 28.871094 15.257812 28.605469 C 15.710938 28.34375 16.085938 27.957031 16.347656 27.492188 C 16.945312 26.511719 25.679688 12.132812 26.496094 10.757812 C 27.3125 9.382812 28.371094 8.351562 30.054688 8.351562 C 30.410156 8.351562 30.519531 8.160156 30.519531 7.953125 C 30.519531 7.433594 29.65625 6.152344 27.300781 6.152344 C 25.519531 6.152344 23.648438 6.9375 22.132812 9.375 C 21.355469 10.605469 15.328125 20.410156 14.054688 22.507812 C 14 22.605469 13.890625 22.761719 13.738281 22.761719 C 13.585938 22.761719 13.507812 22.664062 13.410156 22.507812 C 10.824219 18.332031 7.359375 12.699219 7.359375 12.699219 C 5.941406 10.367188 4.304688 9.796875 2.894531 9.796875 C 1.027344 9.796875 0 10.800781 0 11.464844 C 0 11.699219 0.0976562 11.953125 0.542969 11.953125 C 1.667969 11.953125 2.089844 12.554688 3.328125 14.617188 C 4.269531 16.136719 11.203125 27.484375 11.203125 27.484375 C 11.464844 27.949219 11.839844 28.332031 12.292969 28.597656 Z M 31.667969 14.617188 C 32.910156 12.554688 33.328125 11.953125 34.453125 11.953125 L 34.457031 11.953125 C 34.894531 11.953125 35 11.699219 35 11.464844 C 35 10.800781 33.972656 9.796875 32.101562 9.796875 C 30.699219 9.796875 29.070312 10.367188 27.640625 12.699219 C 27.640625 12.699219 18.859375 26.945312 18.800781 27.042969 C 18.714844 27.140625 18.660156 27.257812 18.640625 27.390625 C 18.660156 27.515625 18.714844 27.636719 18.800781 27.726562 C 19.082031 28.121094 19.449219 28.441406 19.875 28.664062 C 20.296875 28.882812 20.769531 29 21.242188 29 C 21.761719 29.003906 22.269531 28.863281 22.722656 28.597656 C 23.171875 28.332031 23.546875 27.949219 23.8125 27.484375 C 23.8125 27.484375 30.746094 16.136719 31.667969 14.617188 Z M 31.667969 14.617188 "/>
</g>
</svg>
