<svg width="256" height="53" viewBox="0 0 256 53" fill="none" xmlns="http://www.w3.org/2000/svg">
<g clip-path="url(#clip0_65_1239)">
<path d="M1.02609 44.5352V43.7792L4.33809 43.2392V17.0312L1.02609 16.5272V15.7352H11.6101V16.5272L8.29809 17.0312V43.6712H19.0621L22.0141 35.7512H22.9861V44.5352H1.02609ZM40.1235 45.2552C37.5075 45.2552 35.1675 44.6192 33.1035 43.3472C31.0395 42.0752 29.4315 40.2992 28.2795 38.0192C27.1275 35.7152 26.5515 33.0872 26.5515 30.1352C26.5515 27.1832 27.1275 24.5672 28.2795 22.2872C29.4315 19.9832 31.0395 18.1952 33.1035 16.9232C35.1675 15.6512 37.5075 15.0152 40.1235 15.0152C42.7395 15.0152 45.0795 15.6512 47.1435 16.9232C49.2075 18.1952 50.8155 19.9832 51.9675 22.2872C53.1195 24.5672 53.6955 27.1832 53.6955 30.1352C53.6955 33.0872 53.1195 35.7152 51.9675 38.0192C50.8155 40.2992 49.2075 42.0752 47.1435 43.3472C45.0795 44.6192 42.7395 45.2552 40.1235 45.2552ZM40.1235 44.4272C41.8515 44.4272 43.3995 43.9712 44.7675 43.0592C46.1595 42.1472 47.2515 40.8272 48.0435 39.0992C48.8355 37.3472 49.2315 35.2832 49.2315 32.9072V27.3632C49.2315 24.9872 48.8355 22.9352 48.0435 21.2072C47.2515 19.4552 46.1595 18.1232 44.7675 17.2112C43.3995 16.2992 41.8515 15.8432 40.1235 15.8432C38.3715 15.8432 36.8115 16.2992 35.4435 17.2112C34.0755 18.1232 32.9955 19.4552 32.2035 21.2072C31.4115 22.9352 31.0155 24.9872 31.0155 27.3632V32.9072C31.0155 35.2832 31.4115 37.3472 32.2035 39.0992C32.9955 40.8272 34.0755 42.1472 35.4435 43.0592C36.8115 43.9712 38.3715 44.4272 40.1235 44.4272ZM79.0865 44.8952C77.7425 44.8952 76.7345 44.5712 76.0625 43.9232C75.3905 43.2752 74.9345 42.1712 74.6945 40.6112L74.0105 35.7872C73.7705 34.1552 73.2065 32.8832 72.3185 31.9712C71.4545 31.0352 70.0985 30.5672 68.2505 30.5672H65.4425V43.2392L68.7545 43.7792V44.5352H58.1705V43.7792L61.4825 43.2392V17.0312L58.1705 16.5272V15.7352H68.2505C72.1625 15.7352 74.9945 16.3472 76.7465 17.5712C78.4985 18.7952 79.3745 20.6552 79.3745 23.1512C79.3745 27.2792 76.8785 29.6672 71.8865 30.3152V30.5312C73.7345 30.7952 75.2105 31.4552 76.3145 32.5112C77.4425 33.5672 78.1505 34.9712 78.4385 36.7232L78.9065 39.8192C79.0985 41.1632 79.3145 42.0752 79.5545 42.5552C79.8185 43.0352 80.2145 43.2752 80.7425 43.2752C81.1025 43.2752 81.4865 43.1672 81.8945 42.9512C82.3025 42.7112 82.6865 42.4112 83.0465 42.0512L83.6585 42.6992C82.9625 43.4912 82.2425 44.0552 81.4985 44.3912C80.7545 44.7272 79.9505 44.8952 79.0865 44.8952ZM69.4745 29.7032C71.2265 29.7032 72.5825 29.1752 73.5425 28.1192C74.5265 27.0392 75.0185 25.4552 75.0185 23.3672V22.6112C75.0185 18.6272 72.7625 16.6352 68.2505 16.6352H65.4425V29.7032H69.4745ZM85.4067 44.5352V43.7792L88.7187 43.2392V17.0312L85.4067 16.5272V15.7352H107.079V23.9792H106.107L103.335 16.6352H92.6787V29.5952H97.3587L99.4827 24.3752H100.419V35.7512H99.4827L97.3227 30.4592H92.6787V43.6712H103.983L106.935 35.7512H107.871V44.5352H85.4067ZM127.408 44.8952L116.68 17.0312V42.3392L120.136 43.7792V44.5352H112.432V43.7792L115.816 42.3392V17.0312L112.504 16.5272V15.7352H120.46L129.496 38.8472L138.712 15.7352H145.984V16.5272L142.672 17.0312V43.2392L145.984 43.7792V44.5352H135.4V43.7792L138.712 43.2392V18.1112L128.056 44.8952H127.408Z" fill="white"/>
</g>
<defs>
<clipPath id="clip0_65_1239">
<rect width="256" height="53" fill="white"/>
</clipPath>
</defs>
</svg>
